<svg width="112" height="112" viewBox="0 0 112 112" fill="none" xmlns="http://www.w3.org/2000/svg">
<path d="M72.8001 11.2C77.7701 11.2 82.2151 13.37 85.2951 16.8H98.9101L100.013 16.8525C105.508 17.3425 110.11 21.4025 111.213 26.8975C111.65 29.0849 110.285 31.2375 108.115 31.78L89.6001 36.4V44.7999C89.6001 58.59 81.2876 70.4375 69.4051 75.6175L78.1901 96.9325L78.3476 97.475C78.5926 98.7524 77.9101 100.065 76.6676 100.59C75.4251 101.115 74.0076 100.642 73.2726 99.575L73.0101 99.085L64.0851 77.42C61.4951 78.0499 58.8001 78.3999 56.0001 78.3999H53.7601L61.3901 96.9325L61.5476 97.475C61.7926 98.7524 61.1101 100.065 59.8676 100.59C58.6251 101.115 57.2076 100.642 56.4726 99.575L56.2101 99.085L47.7051 78.4174H10.7801L4.55008 83.405C3.34258 84.35 1.57508 84.1574 0.612582 82.95C-0.349918 81.7424 -0.157418 79.975 1.05008 79.0125L56.0001 35.0525V28C56.0001 18.725 63.5251 11.2 72.8001 11.2ZM72.8001 16.8C66.6226 16.8 61.6001 21.8225 61.6001 28V42.8925C61.6001 56.84 52.2201 69.055 38.7276 72.66L38.1501 72.8175H55.9826C71.4526 72.8175 83.9826 60.2875 83.9826 44.8175V28.0175C83.9826 21.84 78.9601 16.8175 72.7826 16.8175L72.8001 16.8ZM18.4626 72.2575L37.2926 67.235C48.3176 64.295 56.0001 54.3025 56.0001 42.875V42.2099L18.4626 72.2399V72.2575ZM72.8001 32.2C70.4726 32.2 68.6001 30.3275 68.6001 28C68.6001 25.6725 70.4726 23.8 72.8001 23.8C75.1276 23.8 77.0001 25.6725 77.0001 28C77.0001 30.3275 75.1276 32.2 72.8001 32.2ZM88.6201 22.4C89.2501 24.15 89.6001 26.04 89.6001 28V30.625L105.333 26.6875C104.283 24.1325 101.763 22.4 98.9101 22.4H88.6201Z" fill="#D6D9E0"/>
</svg>
