<svg width="160" height="158" viewBox="0 0 160 158" fill="none" xmlns="http://www.w3.org/2000/svg">
<mask id="mask0_4_210" style="mask-type:alpha" maskUnits="userSpaceOnUse" x="15" y="0" width="130" height="158">
<path d="M144.194 101.322V14.494C144.194 11.4147 141.28 8.97056 137.78 8.8441C115.99 8.05676 101.902 2.25425e-10 80.0006 0C58.0996 2.25421e-10 44.0114 8.05676 22.2209 8.8441C18.721 8.97056 15.8076 11.4147 15.8076 14.494V101.322C15.8076 122.738 39.8988 146.576 80.0006 157.752C120.102 146.576 144.194 122.738 144.194 101.322Z" fill="#DEE9D4"></path>
</mask>
<g mask="url(#mask0_4_210)">
<path d="M144.194 101.322V14.494C144.194 11.4147 141.28 8.97056 137.78 8.8441C115.99 8.05676 101.902 2.25425e-10 80.0006 0C58.0996 2.25421e-10 44.0114 8.05676 22.2209 8.8441C18.721 8.97056 15.8076 11.4147 15.8076 14.494V101.322C15.8076 122.738 39.8988 146.576 80.0006 157.752C120.102 146.576 144.194 122.738 144.194 101.322Z" fill="#D4E9E6"></path>
<path d="M76.9068 69.3683C28.2125 69.3683 -11.262 73.782 -11.262 79.2265V10.2191H165.076V79.2265C165.076 73.782 125.601 69.3683 76.9068 69.3683Z" fill="#A5E0D6"></path>
<path d="M80.0004 6.1875C69.8282 6.18753 61.4395 8.0438 52.4857 10.1494C43.5889 12.2417 34.0401 14.6083 22.4447 15.0273C22.2688 15.0337 22.1161 15.0667 21.9945 15.1104V101.322C21.9945 109.686 26.7581 119.462 37.0277 128.799C46.9235 137.796 61.4843 145.927 80.0004 151.317C98.5167 145.927 113.077 137.796 122.973 128.799C133.243 119.462 138.006 109.686 138.006 101.322V15.1104C137.885 15.0668 137.733 15.0337 137.557 15.0273C125.962 14.6084 116.413 12.2417 107.516 10.1494C98.5621 8.04378 90.1727 6.1875 80.0004 6.1875Z" stroke="#FBF8EE" stroke-width="12.3746"></path>
<path d="M28.182 20.8678C38.0428 20.0022 46.4443 17.9267 53.9016 16.173C62.8259 14.0743 70.6063 12.3747 80.0005 12.3747C89.3946 12.3747 97.1751 14.0743 106.099 16.173C113.557 17.9267 121.958 20.0022 131.819 20.8678V101.322C131.819 107.342 128.315 115.58 118.811 124.221C110.032 132.202 96.9466 139.693 80.0005 144.861C63.0544 139.693 49.9691 132.202 41.1902 124.221C31.6862 115.58 28.182 107.342 28.182 101.322V20.8678Z" stroke="#C5A057" stroke-width="1.54682" stroke-linecap="round" stroke-linejoin="round" stroke-dasharray="3.09 9.28"></path>
<path d="M80.0004 4.64062C69.6336 4.64066 61.0924 6.53619 52.1312 8.64355C43.2127 10.7409 33.8084 13.0688 22.3881 13.4814C21.6481 13.5083 21.0722 13.7813 20.7435 14.0664C20.5862 14.203 20.5109 14.319 20.4789 14.3838C20.4509 14.4405 20.4476 14.4708 20.4476 14.4941V101.322C20.4476 110.272 25.5264 120.432 35.9877 129.943C46.1664 139.198 61.0982 147.484 80.0013 152.926C98.9039 147.484 113.836 139.197 124.014 129.943C134.475 120.432 139.553 110.272 139.553 101.322V14.4941C139.553 14.4708 139.551 14.4404 139.523 14.3838C139.491 14.319 139.416 14.203 139.258 14.0664C138.93 13.7812 138.353 13.5082 137.613 13.4814C126.192 13.0688 116.788 10.7409 107.87 8.64355C98.9083 6.53619 90.3671 4.64063 80.0004 4.64062Z" stroke="#295750" stroke-width="9.28093"></path>
<mask id="mask1_4_210" style="mask-type:alpha" maskUnits="userSpaceOnUse" x="15" y="0" width="130" height="158">
<path d="M23.5416 16.5302C34.8448 16.0055 44.2276 13.6809 52.8398 11.6556C61.7863 9.55168 70.0228 7.73414 80.0006 7.73414C89.9783 7.73414 98.2149 9.55168 107.161 11.6556C115.774 13.6809 125.156 16.0055 136.46 16.5302V101.322C136.46 109.1 132.011 118.491 121.932 127.654C112.318 136.396 98.1276 144.367 80.0006 149.705C61.8736 144.367 47.6831 136.396 38.0687 127.654C27.9904 118.491 23.5416 109.1 23.5416 101.322V16.5302ZM15.8075 101.322C15.8075 122.738 39.8988 146.576 80.0006 157.752L80.9379 157.488C120.478 146.203 144.194 122.571 144.194 101.322V14.4939C144.194 11.511 141.46 9.12386 138.107 8.86254L137.781 8.84441C115.99 8.05707 101.902 3.81472e-05 80.0006 3.8147e-05C58.0996 3.81472e-05 44.0111 8.05707 22.2206 8.84441C18.7208 8.97099 15.8075 11.4148 15.8075 14.4939V101.322Z" fill="#326A50"></path>
</mask>
<g mask="url(#mask1_4_210)">
<path d="M23.5416 16.5302C34.8448 16.0055 44.2276 13.6809 52.8398 11.6556C61.7863 9.55168 70.0228 7.73414 80.0006 7.73414C89.9783 7.73414 98.2149 9.55168 107.161 11.6556C115.774 13.6809 125.156 16.0055 136.46 16.5302V101.322C136.46 109.1 132.011 118.491 121.932 127.654C112.318 136.396 98.1276 144.367 80.0006 149.705C61.8736 144.367 47.6831 136.396 38.0687 127.654C27.9904 118.491 23.5416 109.1 23.5416 101.322V16.5302ZM15.8075 101.322C15.8075 122.738 39.8988 146.576 80.0006 157.752L80.9379 157.488C120.478 146.203 144.194 122.571 144.194 101.322V14.4939C144.194 11.511 141.46 9.12386 138.107 8.86254L137.781 8.84441C115.99 8.05707 101.902 3.81472e-05 80.0006 3.8147e-05C58.0996 3.81472e-05 44.0111 8.05707 22.2206 8.84441C18.7208 8.97099 15.8075 11.4148 15.8075 14.4939V101.322Z" fill="#188673"></path>
<path d="M203.757 101.868L44.2847 193.94L43.5113 192.6L202.984 100.528L203.757 101.868ZM202.211 99.1887L42.7391 191.26L41.9657 189.92L201.437 97.8492L202.211 99.1887ZM200.664 96.5096L41.1923 188.581L40.4189 187.241L199.89 95.17L200.664 96.5096ZM199.117 93.8305L39.6455 185.901L38.8721 184.562L198.344 92.4909L199.117 93.8305ZM197.57 91.1513L38.0987 183.222L37.3253 181.883L196.797 89.8118L197.57 91.1513ZM196.024 88.4725L36.5519 180.543L35.7785 179.204L195.251 87.1329L196.024 88.4725ZM194.477 85.7931L35.0041 177.864L34.2307 176.524L193.703 84.4535L194.477 85.7931ZM192.929 83.1137L33.4573 175.185L32.6839 173.845L192.156 81.7741L192.929 83.1137ZM191.383 80.4348L31.9105 172.506L31.1371 171.166L190.61 79.0952L191.383 80.4348ZM189.836 77.7557L30.3647 169.827L29.5913 168.487L189.063 76.4161L189.836 77.7557ZM188.289 75.0766L28.8179 167.148L28.0445 165.808L187.516 73.737L188.289 75.0766ZM186.744 72.3967L27.2711 164.468L26.4977 163.129L185.97 71.0572L186.744 72.3967ZM185.196 69.7174L25.7243 161.789L24.9509 160.45L184.423 68.3778L185.196 69.7174ZM183.648 67.0389L24.1766 159.11L23.4032 157.77L182.875 65.6993L183.648 67.0389ZM182.103 64.3591L22.6298 156.431L21.8564 155.091L181.329 63.0195L182.103 64.3591ZM180.555 61.6797L21.083 153.752L20.3096 152.412L179.781 60.3401L180.555 61.6797ZM179.009 59.0018L19.5362 151.072L18.7628 149.733L178.236 57.6613L179.009 59.0018ZM177.462 56.3217L17.9903 148.394L17.2169 147.054L176.689 54.9821L177.462 56.3217ZM175.915 53.6426L16.4435 145.714L15.6701 144.375L175.142 52.303L175.915 53.6426ZM174.368 50.9632L14.8958 143.035L14.1224 141.696L173.594 49.6236L174.368 50.9632ZM172.821 48.2841L13.349 140.356L12.5756 139.016L172.047 46.9445L172.821 48.2841ZM171.274 45.6049L11.8022 137.677L11.0288 136.337L170.501 44.2654L171.274 45.6049ZM169.728 42.9261L10.2554 134.998L9.482 133.658L168.955 41.5865L169.728 42.9261ZM168.181 40.2469L8.70955 132.319L7.93615 130.979L167.408 38.9074L168.181 40.2469ZM166.635 37.5678L7.16206 129.639L6.38866 128.299L165.861 36.2282L166.635 37.5678ZM165.088 34.8887L5.61621 126.96L4.84281 125.62L164.314 33.5491L165.088 34.8887ZM163.54 32.2093L4.06753 124.28L3.29413 122.94L162.767 30.8697L163.54 32.2093ZM161.993 29.5302L2.52167 121.601L1.74828 120.262L161.22 28.1906L161.993 29.5302ZM160.446 26.851L0.974626 118.923L0.201228 117.583L159.673 25.5115L160.446 26.851ZM158.9 24.1719L-0.571918 116.243L-1.34532 114.903L158.126 22.8323L158.9 24.1719ZM157.354 21.493L-2.11871 113.564L-2.89211 112.224L156.58 20.1535L157.354 21.493ZM155.807 18.8139L-3.66457 110.885L-4.43891 109.545L155.034 17.4743L155.807 18.8139ZM154.258 16.1343L-5.21325 108.205L-5.98665 106.866L153.485 14.7947L154.258 16.1343ZM152.712 13.4554L-6.76005 105.526L-7.53344 104.187L151.939 12.1158L152.712 13.4554ZM151.166 10.7763L-8.30684 102.847L-9.08024 101.507L150.392 9.43669L151.166 10.7763ZM149.619 8.09712L-9.85269 100.168L-10.6261 98.8285L148.845 6.75756L149.619 8.09712ZM148.072 5.41799L-11.3995 97.489L-12.1729 96.1494L147.299 4.07843L148.072 5.41799ZM146.525 2.73886L-12.9463 94.8098L-13.7197 93.4703L145.752 1.3993L146.525 2.73886ZM144.978 0.0594818L-14.494 92.1304L-15.2674 90.7909L144.204 -1.28008L144.978 0.0594818ZM143.432 -2.61939L-16.0408 89.4513L-16.8142 88.1118L142.658 -3.95896L143.432 -2.61939ZM141.884 -5.29878L-17.5876 86.7722L-18.361 85.4326L141.111 -6.63834L141.884 -5.29878ZM140.338 -7.97765L-19.1344 84.0931L-19.9078 82.7535L139.565 -9.31722L140.338 -7.97765ZM138.792 -10.6577L-20.6803 81.4142L-21.4546 80.0744L138.018 -11.9973L138.792 -10.6577ZM137.245 -13.3369L-22.2271 78.7351L-23.0005 77.3955L136.471 -14.6764L137.245 -13.3369ZM135.699 -16.0157L-23.7739 76.0559L-24.5473 74.7164L134.926 -17.3553L135.699 -16.0157ZM134.15 -18.6954L-25.3225 73.3763L-26.0959 72.0367L133.377 -20.0349L134.15 -18.6954ZM132.603 -21.3745L-26.8684 70.6974L-27.6418 69.3578L131.83 -22.7141L132.603 -21.3745ZM131.058 -24.0534L-28.4152 68.0183L-29.1886 66.6787L130.284 -25.3929L131.058 -24.0534ZM129.511 -26.7325L-29.962 65.3392L-30.7354 63.9996L128.737 -28.0721L129.511 -26.7325ZM127.964 -29.4116L-31.5088 62.66L-32.2822 61.3205L127.191 -30.7512L127.964 -29.4116ZM126.417 -32.0908L-33.0546 59.9811L-33.828 58.6416L125.644 -33.4303L126.417 -32.0908ZM124.869 -34.7701L-34.6033 57.3015L-35.3767 55.9619L124.096 -36.1097L124.869 -34.7701ZM123.323 -37.4493L-36.1492 54.6226L-36.9226 53.2831L122.549 -38.7888L123.323 -37.4493ZM121.776 -40.1284L-37.6969 51.9433L-38.4703 50.6037L121.002 -41.468L121.776 -40.1284ZM120.229 -42.8075L-39.2428 49.2644L-40.0162 47.9248L119.456 -44.1471L120.229 -42.8075ZM118.683 -45.4864L-40.7893 46.5843L-41.5627 45.2447L117.91 -46.826L118.683 -45.4864ZM117.136 -48.1655L-42.3361 43.9052L-43.1095 42.5656L116.363 -49.5051L117.136 -48.1655ZM115.59 -50.8447L-43.8829 41.226L-44.6563 39.8865L114.816 -52.1842L115.59 -50.8447ZM114.041 -53.5243L-45.4306 38.5467L-46.204 37.2071L113.268 -54.8639L114.041 -53.5243Z" fill="#295750"></path>
</g>
<path d="M80.0004 0.773438C69.1473 0.773471 60.2262 2.76816 51.2465 4.87988C42.2738 6.98995 33.2312 9.22036 22.2484 9.61719C19.032 9.7336 16.5814 11.9523 16.5814 14.4941V101.322C16.5814 111.737 22.4464 122.858 33.3861 132.805C44.2781 142.707 60.1403 151.383 80.0013 156.947C99.8617 151.383 115.723 142.707 126.615 132.805C137.554 122.858 143.42 111.737 143.42 101.322V14.4941C143.42 11.9522 140.969 9.73341 137.752 9.61719C126.77 9.22035 117.728 6.98991 108.755 4.87988C99.7755 2.76815 90.8536 0.773438 80.0004 0.773438Z" stroke="#295750" stroke-width="1.54682"></path>
</g>
<g clip-path="url(#clip0_4_210)">
<path d="M58.9534 119.449L54.1568 124.244C53.9804 124.421 53.9804 124.706 54.1568 124.881C54.3333 125.055 54.6187 125.057 54.7932 124.881L56.1975 123.476C56.3364 123.563 56.4847 123.63 56.6443 123.673C57.4853 123.902 58.7938 123.934 60.0704 123.088C60.2995 122.936 60.1793 122.611 59.9052 122.611H59.603C59.5072 122.611 59.4303 122.534 59.4303 122.438C59.4303 122.361 59.4809 122.295 59.5523 122.273L61.3864 121.723C61.4503 121.704 61.5066 121.665 61.5441 121.608C61.6267 121.488 61.7056 121.366 61.7807 121.24C61.8971 121.047 61.7525 120.809 61.5272 120.809H60.8026C60.7068 120.809 60.6299 120.732 60.6299 120.636C60.6299 120.559 60.6806 120.493 60.7519 120.471L62.2707 120.014C62.357 119.988 62.4284 119.924 62.4622 119.84C63.0085 118.462 63.2581 117.018 63.3351 116.093C63.3501 115.907 63.2788 115.725 63.1474 115.593C63.016 115.462 62.8339 115.391 62.648 115.406C61.0748 115.533 58.0147 116.162 56.3045 117.872C54.8008 119.376 54.7895 121.077 55.0636 122.093C55.103 122.241 55.2889 122.273 55.3977 122.164L58.486 119.078C58.6024 118.961 58.7938 118.961 58.9102 119.078C59.0116 119.179 59.0248 119.333 58.9515 119.449H58.9534Z" fill="#177364"></path>
</g>
<path d="M68.5329 124.708C68.4475 124.708 68.3706 124.678 68.3022 124.618C68.2424 124.558 68.2125 124.481 68.2125 124.387V118.018L66.367 119.44C66.2901 119.5 66.209 119.522 66.1235 119.505C66.0466 119.487 65.9783 119.44 65.9185 119.364L65.2777 118.531C65.2264 118.454 65.205 118.372 65.2136 118.287C65.2307 118.202 65.2777 118.133 65.3546 118.082L68.2766 115.826C68.3279 115.792 68.3749 115.771 68.4176 115.762C68.4688 115.745 68.5244 115.737 68.5842 115.737H69.9427C70.0281 115.737 70.1007 115.767 70.1605 115.826C70.2203 115.886 70.2503 115.963 70.2503 116.057V124.387C70.2503 124.481 70.2203 124.558 70.1605 124.618C70.1007 124.678 70.0281 124.708 69.9427 124.708H68.5329ZM75.1269 124.849C74.358 124.849 73.7129 124.725 73.1917 124.477C72.6705 124.229 72.2732 123.905 71.9998 123.503C71.735 123.102 71.594 122.674 71.5769 122.222C71.5769 122.145 71.6025 122.081 71.6538 122.029C71.7051 121.978 71.7691 121.952 71.846 121.952H73.2942C73.3968 121.952 73.4779 121.978 73.5377 122.029C73.6061 122.072 73.6574 122.132 73.6915 122.209C73.777 122.439 73.888 122.627 74.0247 122.773C74.17 122.918 74.3366 123.025 74.5246 123.093C74.7125 123.161 74.9133 123.196 75.1269 123.196C75.4003 123.196 75.6524 123.14 75.8831 123.029C76.1137 122.909 76.2974 122.738 76.4341 122.516C76.5708 122.294 76.6392 122.021 76.6392 121.696C76.6392 121.414 76.5751 121.166 76.447 120.953C76.3188 120.739 76.1394 120.573 75.9087 120.453C75.678 120.333 75.4174 120.273 75.1269 120.273C74.9048 120.273 74.7211 120.299 74.5758 120.35C74.4391 120.402 74.3238 120.466 74.2298 120.543C74.1358 120.611 74.0504 120.675 73.9735 120.735C73.8966 120.786 73.8111 120.812 73.7172 120.812H72.2946C72.2177 120.812 72.1493 120.786 72.0895 120.735C72.0383 120.675 72.0126 120.607 72.0126 120.53L72.4612 116.108C72.4783 115.989 72.521 115.899 72.5894 115.839C72.6663 115.771 72.756 115.737 72.8585 115.737H77.8311C77.9251 115.737 78.002 115.767 78.0618 115.826C78.1216 115.886 78.1515 115.963 78.1515 116.057V117.082C78.1515 117.168 78.1216 117.24 78.0618 117.3C78.002 117.36 77.9251 117.39 77.8311 117.39H74.1273L73.935 119.274C74.1059 119.163 74.3152 119.065 74.563 118.979C74.8193 118.885 75.1739 118.838 75.6267 118.838C76.0368 118.838 76.4256 118.906 76.793 119.043C77.1689 119.171 77.5021 119.364 77.7926 119.62C78.0831 119.876 78.3095 120.184 78.4719 120.543C78.6428 120.893 78.7282 121.294 78.7282 121.747C78.7282 122.362 78.5829 122.905 78.2925 123.375C78.002 123.836 77.5876 124.199 77.0493 124.464C76.511 124.721 75.8702 124.849 75.1269 124.849ZM83.4936 124.836C82.8785 124.836 82.3487 124.751 81.9044 124.58C81.4687 124.4 81.1056 124.157 80.8151 123.849C80.5331 123.533 80.3195 123.17 80.1743 122.76C80.0376 122.341 79.9564 121.897 79.9308 121.427C79.9222 121.196 79.9137 120.94 79.9052 120.658C79.9052 120.367 79.9052 120.077 79.9052 119.786C79.9137 119.496 79.9222 119.231 79.9308 118.992C79.9479 118.522 80.029 118.082 80.1743 117.672C80.3281 117.262 80.5502 116.903 80.8407 116.595C81.1312 116.288 81.4943 116.048 81.9301 115.878C82.3744 115.698 82.8955 115.608 83.4936 115.608C84.0917 115.608 84.6086 115.698 85.0443 115.878C85.4801 116.048 85.8432 116.288 86.1337 116.595C86.4242 116.903 86.6421 117.262 86.7873 117.672C86.9411 118.082 87.0308 118.522 87.0564 118.992C87.065 119.231 87.0693 119.496 87.0693 119.786C87.0778 120.077 87.0778 120.367 87.0693 120.658C87.0693 120.94 87.065 121.196 87.0564 121.427C87.0308 121.897 86.9454 122.341 86.8001 122.76C86.6549 123.17 86.437 123.533 86.1465 123.849C85.8646 124.157 85.5014 124.4 85.0572 124.58C84.6214 124.751 84.1002 124.836 83.4936 124.836ZM83.4936 123.17C83.9892 123.17 84.3523 123.008 84.583 122.683C84.8137 122.358 84.9375 121.918 84.9546 121.363C84.9632 121.115 84.9675 120.859 84.9675 120.594C84.976 120.329 84.976 120.064 84.9675 119.799C84.9675 119.534 84.9632 119.287 84.9546 119.056C84.9375 118.526 84.8137 118.095 84.583 117.762C84.3523 117.428 83.9892 117.257 83.4936 117.249C82.9895 117.257 82.6221 117.428 82.3914 117.762C82.1693 118.095 82.0497 118.526 82.0326 119.056C82.0241 119.287 82.0155 119.534 82.007 119.799C82.007 120.064 82.007 120.329 82.007 120.594C82.0155 120.859 82.0241 121.115 82.0326 121.363C82.0497 121.918 82.1736 122.358 82.4043 122.683C82.635 123.008 82.9981 123.17 83.4936 123.17ZM88.1475 124.708C88.0706 124.708 88.0065 124.682 87.9553 124.631C87.904 124.571 87.8784 124.507 87.8784 124.439C87.8784 124.413 87.8826 124.387 87.8912 124.362C87.8997 124.336 87.9083 124.311 87.9168 124.285L90.7491 120.133L88.1091 116.16C88.0834 116.108 88.0706 116.057 88.0706 116.006C88.0706 115.937 88.0962 115.878 88.1475 115.826C88.1988 115.767 88.2628 115.737 88.3397 115.737H89.9161C90.0272 115.737 90.1126 115.767 90.1724 115.826C90.2408 115.886 90.292 115.942 90.3262 115.993L92.0435 118.543L93.7737 115.993C93.8079 115.942 93.8591 115.886 93.9275 115.826C93.9958 115.767 94.0856 115.737 94.1966 115.737H95.6961C95.7644 115.737 95.8242 115.767 95.8755 115.826C95.9353 115.878 95.9652 115.937 95.9652 116.006C95.9652 116.066 95.9481 116.117 95.914 116.16L93.2739 120.12L96.119 124.285C96.1361 124.311 96.1446 124.336 96.1446 124.362C96.1532 124.387 96.1575 124.413 96.1575 124.439C96.1575 124.507 96.1318 124.571 96.0806 124.631C96.0293 124.682 95.9652 124.708 95.8883 124.708H94.2607C94.1496 124.708 94.0599 124.678 93.9916 124.618C93.9318 124.558 93.8848 124.507 93.8506 124.464L91.9795 121.773L90.1212 124.464C90.0955 124.507 90.0485 124.558 89.9802 124.618C89.9204 124.678 89.8307 124.708 89.711 124.708H88.1475ZM97.6157 124.708C97.5217 124.708 97.4448 124.678 97.385 124.618C97.3252 124.558 97.2953 124.481 97.2953 124.387V116.057C97.2953 115.963 97.3252 115.886 97.385 115.826C97.4448 115.767 97.5217 115.737 97.6157 115.737H101.114C101.806 115.737 102.405 115.843 102.909 116.057C103.421 116.271 103.819 116.595 104.101 117.031C104.391 117.458 104.536 117.992 104.536 118.633C104.536 119.282 104.391 119.821 104.101 120.248C103.819 120.667 103.421 120.978 102.909 121.183C102.405 121.388 101.806 121.491 101.114 121.491H99.3971V124.387C99.3971 124.481 99.3672 124.558 99.3074 124.618C99.2476 124.678 99.1707 124.708 99.0767 124.708H97.6157ZM99.3586 119.902H101.05C101.486 119.902 101.824 119.795 102.063 119.581C102.311 119.368 102.434 119.047 102.434 118.62C102.434 118.244 102.323 117.937 102.101 117.697C101.888 117.458 101.537 117.339 101.05 117.339H99.3586V119.902Z" fill="#177364"></path>
<mask id="path-13-outside-1_4_210" maskUnits="userSpaceOnUse" x="57.1819" y="45.9364" width="45" height="57" fill="black">
<rect fill="white" x="57.1819" y="45.9364" width="45" height="57"></rect>
<path d="M79.321 100.679C75.8562 100.679 72.8615 100.258 70.3371 99.4167C67.8127 98.5752 65.709 97.4863 64.0261 96.1498C62.3926 94.7638 61.1552 93.2789 60.3137 91.695C59.4722 90.0615 59.0268 88.4528 58.9773 86.8689C58.9773 86.4234 59.1257 86.0769 59.4227 85.8294C59.7692 85.5324 60.1652 85.3839 60.6107 85.3839H67.293C67.7879 85.3839 68.2087 85.4829 68.5552 85.6809C68.9017 85.8789 69.1986 86.2749 69.4461 86.8689C69.8916 88.2053 70.6094 89.2695 71.5993 90.0615C72.6388 90.8535 73.8267 91.4227 75.1632 91.7692C76.4996 92.0662 77.9103 92.2147 79.3953 92.2147C82.3652 92.2147 84.7164 91.5217 86.4488 90.1358C88.2307 88.7003 89.1217 86.6709 89.1217 84.0475C89.1217 81.4241 88.305 79.5431 86.6715 78.4047C85.0381 77.2167 82.7612 76.6227 79.8408 76.6227H72.1933C71.6488 76.6227 71.2033 76.4742 70.8568 76.1772C70.5104 75.8308 70.3371 75.3853 70.3371 74.8408V71.7224C70.3371 71.2274 70.4361 70.8067 70.6341 70.4602C70.8816 70.0642 71.1291 69.7425 71.3766 69.495L84.6669 56.5017H63.4321C62.8876 56.5017 62.4421 56.3284 62.0956 55.9819C61.7987 55.6355 61.6502 55.2147 61.6502 54.7197V49.8194C61.6502 49.2749 61.7987 48.8294 62.0956 48.483C62.4421 48.1365 62.8876 47.9632 63.4321 47.9632H95.2842C95.8287 47.9632 96.2742 48.1365 96.6207 48.483C96.9672 48.8294 97.1404 49.2749 97.1404 49.8194V54.2743C97.1404 54.7197 97.0414 55.1157 96.8434 55.4622C96.6454 55.8087 96.4227 56.1057 96.1752 56.3532L83.3304 69.5692L84.2214 69.6435C87.2408 69.891 89.9137 70.5839 92.2401 71.7224C94.616 72.8114 96.4475 74.4201 97.7344 76.5485C99.0709 78.6769 99.7391 81.3498 99.7391 84.5672C99.7391 87.9331 98.8481 90.8287 97.0662 93.2541C95.3337 95.6301 92.9331 97.4615 89.8642 98.7485C86.7953 100.035 83.2809 100.679 79.321 100.679Z"></path>
</mask>
<path d="M79.321 100.679C75.8562 100.679 72.8615 100.258 70.3371 99.4167C67.8127 98.5752 65.709 97.4863 64.0261 96.1498C62.3926 94.7638 61.1552 93.2789 60.3137 91.695C59.4722 90.0615 59.0268 88.4528 58.9773 86.8689C58.9773 86.4234 59.1257 86.0769 59.4227 85.8294C59.7692 85.5324 60.1652 85.3839 60.6107 85.3839H67.293C67.7879 85.3839 68.2087 85.4829 68.5552 85.6809C68.9017 85.8789 69.1986 86.2749 69.4461 86.8689C69.8916 88.2053 70.6094 89.2695 71.5993 90.0615C72.6388 90.8535 73.8267 91.4227 75.1632 91.7692C76.4996 92.0662 77.9103 92.2147 79.3953 92.2147C82.3652 92.2147 84.7164 91.5217 86.4488 90.1358C88.2307 88.7003 89.1217 86.6709 89.1217 84.0475C89.1217 81.4241 88.305 79.5431 86.6715 78.4047C85.0381 77.2167 82.7612 76.6227 79.8408 76.6227H72.1933C71.6488 76.6227 71.2033 76.4742 70.8568 76.1772C70.5104 75.8308 70.3371 75.3853 70.3371 74.8408V71.7224C70.3371 71.2274 70.4361 70.8067 70.6341 70.4602C70.8816 70.0642 71.1291 69.7425 71.3766 69.495L84.6669 56.5017H63.4321C62.8876 56.5017 62.4421 56.3284 62.0956 55.9819C61.7987 55.6355 61.6502 55.2147 61.6502 54.7197V49.8194C61.6502 49.2749 61.7987 48.8294 62.0956 48.483C62.4421 48.1365 62.8876 47.9632 63.4321 47.9632H95.2842C95.8287 47.9632 96.2742 48.1365 96.6207 48.483C96.9672 48.8294 97.1404 49.2749 97.1404 49.8194V54.2743C97.1404 54.7197 97.0414 55.1157 96.8434 55.4622C96.6454 55.8087 96.4227 56.1057 96.1752 56.3532L83.3304 69.5692L84.2214 69.6435C87.2408 69.891 89.9137 70.5839 92.2401 71.7224C94.616 72.8114 96.4475 74.4201 97.7344 76.5485C99.0709 78.6769 99.7391 81.3498 99.7391 84.5672C99.7391 87.9331 98.8481 90.8287 97.0662 93.2541C95.3337 95.6301 92.9331 97.4615 89.8642 98.7485C86.7953 100.035 83.2809 100.679 79.321 100.679Z" fill="#188673"></path>
<path d="M70.3371 99.4167L70.8263 97.9492L70.3371 99.4167ZM64.0261 96.1498L63.0253 97.3293L63.0445 97.3455L63.0641 97.3611L64.0261 96.1498ZM60.3137 91.695L58.9386 92.4033L58.9431 92.412L58.9477 92.4207L60.3137 91.695ZM58.9773 86.8689H57.4304V86.893L57.4312 86.9172L58.9773 86.8689ZM59.4227 85.8294L60.413 87.0177L60.4212 87.0108L60.4294 87.0038L59.4227 85.8294ZM68.5552 85.6809L67.7877 87.0239H67.7877L68.5552 85.6809ZM69.4461 86.8689L70.9136 86.3797L70.8957 86.3261L70.874 86.2739L69.4461 86.8689ZM71.5993 90.0615L70.633 91.2694L70.6473 91.2808L70.6619 91.2919L71.5993 90.0615ZM75.1632 91.7692L74.775 93.2665L74.8012 93.2733L74.8276 93.2792L75.1632 91.7692ZM86.4488 90.1358L87.4151 91.3436L87.4192 91.3404L86.4488 90.1358ZM86.6715 78.4047L85.7617 79.6556L85.7743 79.6648L85.7871 79.6737L86.6715 78.4047ZM70.8568 76.1772L69.7631 77.271L69.8051 77.313L69.8502 77.3517L70.8568 76.1772ZM70.6341 70.4602L69.3224 69.6404L69.3062 69.6663L69.2911 69.6928L70.6341 70.4602ZM71.3766 69.495L70.2952 68.3889L70.289 68.395L70.2828 68.4012L71.3766 69.495ZM84.6669 56.5017L85.7482 57.6077L88.4617 54.9549H84.6669V56.5017ZM62.0956 55.9819L60.9212 56.9886L60.9599 57.0337L61.0019 57.0757L62.0956 55.9819ZM62.0956 48.483L61.0019 47.3892L60.9599 47.4312L60.9212 47.4763L62.0956 48.483ZM96.8434 55.4622L98.1865 56.2296L98.1865 56.2296L96.8434 55.4622ZM96.1752 56.3532L95.0814 55.2594L95.0737 55.2672L95.066 55.2751L96.1752 56.3532ZM83.3304 69.5692L82.2212 68.4911L79.9394 70.8388L83.202 71.1107L83.3304 69.5692ZM84.2214 69.6435L84.0929 71.185L84.095 71.1851L84.2214 69.6435ZM92.2401 71.7224L91.5602 73.1118L91.5778 73.1204L91.5956 73.1286L92.2401 71.7224ZM97.7344 76.5485L96.4107 77.3488L96.4175 77.36L96.4244 77.371L97.7344 76.5485ZM97.0662 93.2542L95.8196 92.3383L95.8163 92.3428L97.0662 93.2542ZM89.8642 98.7485L89.266 97.322V97.322L89.8642 98.7485ZM79.321 100.679V99.1321C75.975 99.1321 73.1535 98.725 70.8263 97.9492L70.3371 99.4167L69.848 100.884C72.5695 101.791 75.7373 102.226 79.321 102.226V100.679ZM70.3371 99.4167L70.8263 97.9492C68.4339 97.1518 66.5004 96.1394 64.988 94.9385L64.0261 96.1498L63.0641 97.3611C64.9177 98.8331 67.1915 99.9986 69.848 100.884L70.3371 99.4167ZM64.0261 96.1498L65.0268 94.9703C63.5144 93.687 62.4133 92.3501 61.6797 90.9693L60.3137 91.695L58.9477 92.4207C59.8971 94.2077 61.2709 95.8406 63.0253 97.3293L64.0261 96.1498ZM60.3137 91.695L61.6888 90.9866C60.936 89.5252 60.5646 88.1405 60.5233 86.8206L58.9773 86.8689L57.4312 86.9172C57.4889 88.7651 58.0085 90.5978 58.9386 92.4033L60.3137 91.695ZM58.9773 86.8689H60.5241C60.5241 86.8181 60.5322 86.8332 60.5104 86.8842C60.4997 86.909 60.4847 86.9359 60.4653 86.9617C60.446 86.9874 60.4272 87.0059 60.413 87.0177L59.4227 85.8294L58.4325 84.6411C57.7269 85.2291 57.4304 86.0424 57.4304 86.8689H58.9773ZM59.4227 85.8294L60.4294 87.0038C60.503 86.9407 60.5442 86.9307 60.6107 86.9307V85.3839V83.8371C59.7862 83.8371 59.0354 84.1241 58.4161 84.655L59.4227 85.8294ZM60.6107 85.3839V86.9307H67.293V85.3839V83.8371H60.6107V85.3839ZM67.293 85.3839V86.9307C67.5828 86.9307 67.7249 86.988 67.7877 87.0239L68.5552 85.6809L69.3226 84.3379C68.6925 83.9778 67.9931 83.8371 67.293 83.8371V85.3839ZM68.5552 85.6809L67.7877 87.0239C67.7392 86.9962 67.749 86.986 67.8003 87.0545C67.8528 87.1244 67.9301 87.252 68.0183 87.4638L69.4461 86.8689L70.874 86.2739C70.5696 85.5434 70.0989 84.7815 69.3226 84.3379L68.5552 85.6809ZM69.4461 86.8689L67.9787 87.358C68.5076 88.9448 69.3848 90.2708 70.633 91.2694L71.5993 90.0615L72.5656 88.8536C71.8339 88.2683 71.2756 87.4659 70.9136 86.3797L69.4461 86.8689ZM71.5993 90.0615L70.6619 91.2919C71.874 92.2154 73.251 92.8714 74.775 93.2665L75.1632 91.7692L75.5514 90.2719C74.4025 89.974 73.4036 89.4915 72.5368 88.8311L71.5993 90.0615ZM75.1632 91.7692L74.8276 93.2792C76.2831 93.6026 77.8069 93.7615 79.3953 93.7615V92.2147V90.6679C78.0138 90.6679 76.7162 90.5298 75.4987 90.2592L75.1632 91.7692ZM79.3953 92.2147V93.7615C82.5975 93.7615 85.3281 93.0132 87.4151 91.3436L86.4488 90.1358L85.4825 88.9279C84.1047 90.0302 82.1328 90.6679 79.3953 90.6679V92.2147ZM86.4488 90.1358L87.4192 91.3404C89.6217 89.566 90.6685 87.0618 90.6685 84.0475H89.1217H87.5749C87.5749 86.28 86.8397 87.8346 85.4784 88.9312L86.4488 90.1358ZM89.1217 84.0475H90.6685C90.6685 81.0955 89.7313 78.6518 87.556 77.1357L86.6715 78.4047L85.7871 79.6737C86.8787 80.4345 87.5749 81.7526 87.5749 84.0475H89.1217ZM86.6715 78.4047L87.5813 77.1537C85.5892 75.7048 82.9481 75.0759 79.8408 75.0759V76.6227V78.1695C82.5743 78.1695 84.487 78.7286 85.7617 79.6556L86.6715 78.4047ZM79.8408 76.6227V75.0759H72.1933V76.6227V78.1695H79.8408V76.6227ZM72.1933 76.6227V75.0759C71.9433 75.0759 71.8777 75.015 71.8635 75.0028L70.8568 76.1772L69.8502 77.3517C70.529 77.9335 71.3543 78.1695 72.1933 78.1695V76.6227ZM70.8568 76.1772L71.9506 75.0835C71.9277 75.0606 71.8839 75.025 71.8839 74.8408H70.3371H68.7903C68.7903 75.7456 69.093 76.6009 69.7631 77.271L70.8568 76.1772ZM70.3371 74.8408H71.8839V71.7224H70.3371H68.7903V74.8408H70.3371ZM70.3371 71.7224H71.8839C71.8839 71.4326 71.9412 71.2905 71.9771 71.2276L70.6341 70.4602L69.2911 69.6928C68.931 70.3229 68.7903 71.0223 68.7903 71.7224H70.3371ZM70.6341 70.4602L71.9458 71.28C72.1505 70.9525 72.3278 70.7312 72.4703 70.5887L71.3766 69.495L70.2828 68.4012C69.9303 68.7537 69.6127 69.1759 69.3224 69.6404L70.6341 70.4602ZM71.3766 69.495L72.4579 70.601L85.7482 57.6077L84.6669 56.5017L83.5855 55.3956L70.2952 68.3889L71.3766 69.495ZM84.6669 56.5017V54.9549H63.4321V56.5017V58.0485H84.6669V56.5017ZM63.4321 56.5017V54.9549C63.2479 54.9549 63.2123 54.9111 63.1894 54.8882L62.0956 55.9819L61.0019 57.0757C61.672 57.7458 62.5273 58.0485 63.4321 58.0485V56.5017ZM62.0956 55.9819L63.2701 54.9753C63.2345 54.9337 63.197 54.8792 63.197 54.7197H61.6502H60.1033C60.1033 55.5503 60.3629 56.3372 60.9212 56.9886L62.0956 55.9819ZM61.6502 54.7197H63.197V49.8194H61.6502H60.1033V54.7197H61.6502ZM61.6502 49.8194H63.197C63.197 49.5694 63.2579 49.5038 63.2701 49.4896L62.0956 48.483L60.9212 47.4763C60.3394 48.1551 60.1033 48.9804 60.1033 49.8194H61.6502ZM62.0956 48.483L63.1894 49.5767C63.2123 49.5538 63.2479 49.51 63.4321 49.51V47.9632V46.4164C62.5273 46.4164 61.672 46.7191 61.0019 47.3892L62.0956 48.483ZM63.4321 47.9632V49.51H95.2842V47.9632V46.4164H63.4321V47.9632ZM95.2842 47.9632V49.51C95.4684 49.51 95.504 49.5538 95.5269 49.5767L96.6207 48.483L97.7145 47.3892C97.0444 46.7191 96.189 46.4164 95.2842 46.4164V47.9632ZM96.6207 48.483L95.5269 49.5767C95.5498 49.5996 95.5936 49.6352 95.5936 49.8194H97.1404H98.6872C98.6872 48.9146 98.3846 48.0593 97.7145 47.3892L96.6207 48.483ZM97.1404 49.8194H95.5936V54.2743H97.1404H98.6872V49.8194H97.1404ZM97.1404 54.2743H95.5936C95.5936 54.4826 95.5498 54.6083 95.5004 54.6948L96.8434 55.4622L98.1865 56.2296C98.533 55.6231 98.6872 54.9569 98.6872 54.2743H97.1404ZM96.8434 55.4622L95.5004 54.6948C95.3613 54.9383 95.2192 55.1216 95.0814 55.2594L96.1752 56.3532L97.269 57.447C97.6262 57.0898 97.9296 56.6791 98.1865 56.2296L96.8434 55.4622ZM96.1752 56.3532L95.066 55.2751L82.2212 68.4911L83.3304 69.5692L84.4396 70.6473L97.2844 57.4313L96.1752 56.3532ZM83.3304 69.5692L83.202 71.1107L84.0929 71.1849L84.2214 69.6435L84.3498 68.102L83.4589 68.0277L83.3304 69.5692ZM84.2214 69.6435L84.095 71.1851C86.9541 71.4195 89.4339 72.0713 91.5602 73.1118L92.2401 71.7224L92.92 70.333C90.3934 69.0966 87.5274 68.3624 84.3477 68.1018L84.2214 69.6435ZM92.2401 71.7224L91.5956 73.1286C93.7046 74.0952 95.2927 75.4998 96.4107 77.3488L97.7344 76.5485L99.0581 75.7481C97.6022 73.3403 95.5274 71.5275 92.8846 70.3162L92.2401 71.7224ZM97.7344 76.5485L96.4244 77.371C97.5683 79.1927 98.1923 81.5603 98.1923 84.5672H99.7391H101.286C101.286 81.1394 100.573 78.1611 99.0444 75.7259L97.7344 76.5485ZM99.7391 84.5672H98.1923C98.1923 87.6445 97.3836 90.2095 95.8196 92.3383L97.0662 93.2542L98.3127 94.17C100.313 91.4479 101.286 88.2217 101.286 84.5672H99.7391ZM97.0662 93.2542L95.8163 92.3428C94.2711 94.4619 92.1098 96.1294 89.266 97.322L89.8642 98.7485L90.4624 100.175C93.7563 98.7936 96.3963 96.7982 98.316 94.1655L97.0662 93.2542ZM89.8642 98.7485L89.266 97.322C86.4189 98.5159 83.1138 99.1321 79.321 99.1321V100.679V102.226C83.448 102.226 87.1717 101.555 90.4624 100.175L89.8642 98.7485Z" fill="#295750" mask="url(#path-13-outside-1_4_210)"></path>
<path d="M42.1876 40.4963C42.0667 40.5269 41.9579 40.5136 41.8614 40.4561C41.765 40.3987 41.7014 40.3095 41.6707 40.1886L38.9506 29.4685C38.9199 29.3476 38.9333 29.2388 38.9907 29.1424C39.0481 29.0459 39.1373 28.9823 39.2583 28.9516L41.0889 28.4871C41.2099 28.4564 41.3186 28.4698 41.4151 28.5272C41.5116 28.5846 41.5752 28.6738 41.6058 28.7948L43.8698 37.7171L48.9825 36.4199C49.1034 36.3892 49.2121 36.4026 49.3086 36.46C49.4051 36.5174 49.4687 36.6066 49.4994 36.7276L49.8509 38.1129C49.8816 38.2339 49.8682 38.3426 49.8108 38.4391C49.7533 38.5356 49.6642 38.5992 49.5432 38.6299L42.1876 40.4963ZM51.9083 38.1791C51.7852 38.1992 51.678 38.1766 51.5868 38.1111C51.4956 38.0455 51.4399 37.9512 51.4198 37.8281L49.6309 26.9139C49.6107 26.7908 49.6334 26.6836 49.6989 26.5924C49.7644 26.5012 49.8587 26.4456 49.9818 26.4254L57.5882 25.1787C57.7113 25.1585 57.8185 25.1811 57.9097 25.2467C58.0009 25.3122 58.0566 25.4065 58.0767 25.5296L58.2969 26.8729C58.3153 26.9848 58.2917 27.0864 58.2262 27.1776C58.1606 27.2688 58.0663 27.3245 57.9432 27.3447L52.5029 28.2364L52.935 30.8726L58.0059 30.0414C58.129 30.0212 58.2362 30.0439 58.3274 30.1094C58.4186 30.1749 58.4743 30.2693 58.4944 30.3924L58.6981 31.6349C58.7165 31.7469 58.6929 31.8484 58.6274 31.9396C58.5618 32.0308 58.4675 32.0865 58.3444 32.1067L53.2735 32.9379L53.7193 35.658L59.294 34.7443C59.4171 34.7241 59.5243 34.7468 59.6155 34.8123C59.7067 34.8778 59.7624 34.9721 59.7825 35.0953L60 36.4217C60.0201 36.5449 59.9975 36.6521 59.932 36.7433C59.8664 36.8345 59.7721 36.8901 59.649 36.9103L51.9083 38.1791ZM65.418 36.3445C65.2371 36.3595 65.0864 36.3264 64.9659 36.2453C64.8557 36.152 64.7724 36.0394 64.716 35.9075L60.2554 25.3327C60.2394 25.2772 60.2295 25.2267 60.2258 25.1815C60.2183 25.0911 60.2456 25.0092 60.3079 24.9357C60.3691 24.851 60.4506 24.8044 60.5524 24.796L62.3329 24.6486C62.5024 24.6346 62.6367 24.6747 62.7355 24.7689C62.8448 24.8509 62.9139 24.9306 62.9431 25.0078L66.2747 33.0809L68.2167 24.5714C68.2441 24.4894 68.2993 24.3995 68.3822 24.3016C68.4642 24.1923 68.59 24.1307 68.7596 24.1167L70.5401 23.9693C70.6418 23.9609 70.7299 23.9934 70.8043 24.067C70.8777 24.1292 70.9182 24.2055 70.9257 24.2959C70.9294 24.3412 70.928 24.3925 70.9213 24.4499L68.26 35.6142C68.2373 35.7526 68.1736 35.8774 68.069 35.9885C67.9748 36.0874 67.8315 36.1447 67.6394 36.1606L65.418 36.3445ZM73.9947 35.7524C73.87 35.754 73.7674 35.7157 73.6869 35.6373C73.6065 35.5589 73.5655 35.4573 73.5639 35.3326L73.4222 24.2737C73.4206 24.1489 73.459 24.0463 73.5374 23.9659C73.6157 23.8855 73.7173 23.8445 73.8421 23.8429L81.5493 23.7441C81.674 23.7425 81.7766 23.7809 81.857 23.8593C81.9374 23.9377 81.9784 24.0392 81.98 24.164L81.9975 25.5251C81.9989 25.6385 81.9605 25.7354 81.8821 25.8159C81.8037 25.8963 81.7021 25.9373 81.5774 25.9389L76.065 26.0095L76.0992 28.6807L81.2373 28.6148C81.3621 28.6132 81.4647 28.6516 81.5451 28.73C81.6255 28.8084 81.6665 28.9099 81.6681 29.0347L81.6842 30.2937C81.6857 30.4071 81.6472 30.5041 81.5689 30.5845C81.4905 30.6649 81.3889 30.7059 81.2641 30.7075L76.126 30.7733L76.1613 33.5296L81.8099 33.4572C81.9346 33.4556 82.0372 33.494 82.1176 33.5723C82.1981 33.6507 82.2391 33.7523 82.2407 33.877L82.2579 35.2211C82.2595 35.3459 82.2211 35.4485 82.1427 35.5289C82.0643 35.6093 81.9628 35.6503 81.838 35.6519L73.9947 35.7524ZM84.7068 35.7124C84.5821 35.7068 84.4819 35.6626 84.4062 35.5797C84.3304 35.4968 84.2953 35.393 84.3009 35.2683L84.7979 24.2197C84.8035 24.0951 84.8477 23.9949 84.9306 23.9191C85.0135 23.8434 85.1173 23.8083 85.2419 23.8139L87.1287 23.8988C87.2534 23.9044 87.3536 23.9486 87.4293 24.0315C87.5051 24.1144 87.5401 24.2182 87.5345 24.3428L87.1209 33.5387L92.3903 33.7757C92.5149 33.7813 92.6151 33.8255 92.6909 33.9084C92.7666 33.9913 92.8017 34.0951 92.7961 34.2197L92.7319 35.6476C92.7263 35.7722 92.682 35.8724 92.5991 35.9482C92.5162 36.0239 92.4125 36.059 92.2878 36.0534L84.7068 35.7124ZM102.374 37.4863C101.386 37.3416 100.546 37.0522 99.8525 36.6182C99.1611 36.173 98.6635 35.5784 98.3598 34.8346C98.0577 34.0795 97.9848 33.1689 98.141 32.1026L99.1474 25.2338C99.1655 25.1104 99.2196 25.0151 99.3096 24.9481C99.3997 24.881 99.5065 24.8565 99.63 24.8746L101.465 25.1435C101.588 25.1616 101.684 25.2157 101.751 25.3058C101.818 25.3958 101.842 25.5026 101.824 25.6261L100.82 32.478C100.699 33.3086 100.805 33.9546 101.138 34.4162C101.472 34.8778 101.992 35.1604 102.699 35.264C103.395 35.366 103.969 35.2437 104.421 34.8972C104.873 34.5508 105.16 33.9622 105.282 33.1317L106.286 26.2797C106.304 26.1563 106.358 26.061 106.448 25.994C106.549 25.9286 106.656 25.9041 106.768 25.9205L108.62 26.1919C108.732 26.2083 108.822 26.2616 108.889 26.3516C108.956 26.4417 108.98 26.5485 108.962 26.672L107.956 33.5407C107.8 34.607 107.469 35.4584 106.963 36.0951C106.458 36.7205 105.817 37.1481 105.038 37.378C104.261 37.5965 103.372 37.6327 102.374 37.4863ZM110.068 38.6043C109.947 38.5745 109.857 38.5116 109.799 38.4155C109.741 38.3194 109.727 38.2108 109.756 38.0897L112.398 27.3499C112.427 27.2287 112.49 27.1391 112.586 27.0809C112.682 27.0228 112.791 27.0086 112.912 27.0384L117.423 28.1477C118.315 28.3671 119.052 28.6944 119.635 29.1296C120.228 29.5675 120.637 30.112 120.862 30.7632C121.101 31.4061 121.119 32.1406 120.916 32.9667C120.71 33.8038 120.352 34.4518 119.842 34.9104C119.346 35.3608 118.735 35.6369 118.009 35.7387C117.294 35.8432 116.491 35.7858 115.599 35.5664L113.384 35.0219L112.466 38.756C112.436 38.8772 112.373 38.9669 112.277 39.025C112.181 39.0831 112.073 39.0973 111.952 39.0675L110.068 38.6043ZM113.839 32.9609L116.02 33.4972C116.582 33.6354 117.05 33.6047 117.427 33.4052C117.814 33.2083 118.075 32.8346 118.211 32.2838C118.33 31.7991 118.284 31.3674 118.074 30.9885C117.874 30.6124 117.46 30.3471 116.832 30.1927L114.651 29.6563L113.839 32.9609Z" fill="#295750"></path>
<defs>
<clipPath id="clip0_4_210">
<rect width="9.61195" height="9.61195" fill="white" transform="translate(53.725 115.402)"></rect>
</clipPath>
</defs>
</svg>